<svg version="1.1" id="Layer_1" xmlns="http://www.w3.org/2000/svg" xmlns:xlink="http://www.w3.org/1999/xlink" x="0px" y="0px"
	 width="100%" viewBox="0 0 512 512" enable-background="new 0 0 512 512" xml:space="preserve">
<path fill="#000000" opacity="1.000000" stroke="none" 
	d="
M377.000000,513.000000 
	C251.714050,513.000000 126.428085,513.000000 1.071066,513.000000 
	C1.071066,342.445251 1.071066,171.890457 1.071066,1.000000 
	C85.355682,1.000000 169.711807,1.000000 254.854767,1.268842 
	C247.730728,6.665005 239.819824,11.792326 231.547760,16.956142 
	C214.365982,27.341360 197.550903,37.699123 180.723358,48.036602 
	C158.074799,61.950024 135.407806,75.833435 112.765152,89.756462 
	C91.525940,102.816505 70.350349,115.980873 49.039227,128.922256 
	C45.498089,131.072647 43.863510,133.244293 43.872204,137.722672 
	C44.043213,225.809586 44.004028,313.896942 43.995243,401.984192 
	C43.993649,417.968567 43.937340,433.952911 43.444630,449.962830 
	C33.985355,449.992584 24.986574,449.912598 15.990653,450.037994 
	C11.784427,450.096619 9.050564,452.161987 7.780638,456.439728 
	C6.679675,460.148285 7.655669,463.276886 10.651488,464.860382 
	C13.384315,466.304871 16.859341,466.909882 20.009287,466.916534 
	C75.327850,467.033081 130.646729,466.989258 185.965530,467.004700 
	C226.620438,467.016052 267.275360,467.062836 307.967773,467.448151 
	C308.397430,468.691711 308.576843,469.790131 309.214203,470.438171 
	C316.557739,477.905426 323.815887,485.469055 331.443848,492.637726 
	C334.361877,495.380066 340.745483,494.595825 343.768127,491.672180 
	C346.013916,489.499969 347.903992,486.959961 349.182007,485.477478 
	C357.562439,488.654510 364.712219,491.289062 371.777649,494.133209 
	C372.731720,494.517242 373.961151,496.024200 373.874786,496.893066 
	C373.305939,502.615479 374.655823,507.885559 377.000000,513.000000 
z"/>
<path fill="#000000" opacity="1.000000" stroke="none" 
	d="
M264.000000,0.999997 
	C346.957550,1.000000 429.915131,1.000000 512.936340,1.000000 
	C512.936340,171.666656 512.936340,342.333344 512.936340,513.000000 
	C481.571960,513.000000 450.254639,513.000000 418.143311,512.718567 
	C418.566162,509.224365 420.958344,505.933563 420.751190,502.815399 
	C420.340576,496.633881 422.207886,493.320984 428.461243,492.757416 
	C428.685059,492.737274 428.871948,492.307587 429.460571,492.040527 
	C434.875031,489.969788 439.904968,487.927307 445.494720,485.657501 
	C446.993347,487.254456 448.830933,489.416412 450.880859,491.353699 
	C454.925354,495.176086 461.124939,495.229980 465.107422,491.354706 
	C471.667694,484.971069 478.115936,478.470886 484.544983,471.954315 
	C488.238708,468.210327 488.472778,462.167358 484.421509,457.961945 
	C482.351196,455.812958 479.984772,453.949219 478.414703,452.547821 
	C480.858765,447.079224 483.223999,442.594208 484.900513,437.865021 
	C488.239410,428.446625 488.087372,428.474670 497.918762,427.963776 
	C502.190338,427.741821 505.590302,426.088959 506.430939,420.901855 
	C506.867157,411.598541 506.978119,402.534027 506.953674,393.469910 
	C506.949585,391.949951 506.359192,390.431610 506.022644,388.532562 
	C505.807251,384.760803 503.988739,382.629944 500.712067,382.065674 
	C497.500183,381.512573 494.179962,381.545349 490.997192,380.886505 
	C489.558441,380.588654 487.681702,379.533997 487.131775,378.314148 
	C484.797028,373.135223 483.252991,367.578796 480.689545,362.531281 
	C478.977814,359.160797 479.086823,357.215637 481.908997,354.551056 
	C489.423706,347.456085 489.283508,341.580933 481.800842,334.228333 
	C476.222260,328.746704 470.496399,323.414917 464.907166,317.549866 
	C464.985535,257.202087 464.999969,197.320892 464.959991,137.439728 
	C464.958984,135.916458 464.359924,134.393585 463.906921,132.556488 
	C453.203552,125.337791 442.644775,118.415077 432.060150,111.532112 
	C408.688354,96.333931 385.313690,81.140106 361.921539,65.973274 
	C330.098083,45.339775 298.250458,24.743460 266.453461,4.069248 
	C265.411133,3.391518 264.807922,2.038322 264.000000,0.999997 
z"/>
<path fill="#3C87D0" opacity="1.000000" stroke="none" 
	d="
M429.076019,492.068756 
	C428.871948,492.307587 428.685059,492.737274 428.461243,492.757416 
	C422.207886,493.320984 420.340576,496.633881 420.751190,502.815399 
	C420.958344,505.933563 418.566162,509.224365 417.674652,512.718567 
	C404.645782,513.000000 391.291534,513.000000 377.468658,513.000000 
	C374.655823,507.885559 373.305939,502.615479 373.874786,496.893066 
	C373.961151,496.024200 372.731720,494.517242 371.777649,494.133209 
	C364.712219,491.289062 357.562439,488.654510 349.182007,485.477478 
	C347.903992,486.959961 346.013916,489.499969 343.768127,491.672180 
	C340.745483,494.595825 334.361877,495.380066 331.443848,492.637726 
	C323.815887,485.469055 316.557739,477.905426 309.214203,470.438171 
	C308.576843,469.790131 308.397430,468.691711 307.991272,467.054749 
	C309.924988,462.772217 311.901276,459.252747 313.807098,455.695496 
	C314.634857,454.150452 315.317627,452.527740 316.138550,450.566833 
	C314.358795,445.775574 311.856506,441.506195 310.806091,436.905334 
	C309.204559,429.890778 306.136902,426.659302 298.382172,427.602722 
	C292.990021,428.258698 289.343109,424.445709 289.204285,419.244904 
	C288.947418,409.621185 288.961395,399.981812 289.193878,390.356964 
	C289.315765,385.309875 292.821167,382.232758 297.906311,381.956818 
	C299.727783,381.857941 301.583374,381.737213 303.379639,381.967712 
	C306.593140,382.380035 307.946167,381.036316 308.975830,377.990051 
	C310.879944,372.356476 313.100006,366.774567 315.805725,361.487030 
	C317.537048,358.103668 317.296875,355.960632 313.900879,353.808899 
	C306.333649,346.000000 306.358002,342.981689 313.829468,335.380249 
	C314.640289,334.555328 315.370117,333.650757 316.415588,332.634918 
	C321.417419,327.826660 326.187439,323.212219 330.847717,318.489532 
	C333.655914,315.643768 337.095490,315.018860 340.435211,316.493591 
	C342.902100,317.583008 345.060944,319.688171 346.930634,321.731049 
	C349.254395,324.269989 351.137909,325.130920 354.460602,323.019714 
	C357.916229,320.824158 361.908112,319.399750 365.782471,317.951019 
	C374.332123,314.753998 374.362122,314.834229 374.871277,305.455902 
	C375.176086,299.841583 378.016937,297.059967 383.635101,296.834839 
	C386.445129,296.722229 389.253235,296.561188 392.514618,296.537231 
	C399.626740,296.670197 406.286407,296.688049 413.313446,296.783356 
	C419.088684,298.263153 421.158386,302.286591 420.706207,307.277496 
	C420.174622,313.144592 421.773224,316.760773 428.077057,317.284882 
	C428.361389,317.308502 428.621552,317.622803 428.968018,318.161682 
	C434.305298,326.577423 440.325867,334.245361 444.683197,342.764069 
	C456.346100,365.565369 461.368713,389.754791 459.187988,415.565674 
	C457.040741,440.980347 448.579865,463.757690 433.810486,484.376801 
	C432.061554,486.818481 430.646088,489.498962 429.076019,492.068756 
M386.482300,441.763428 
	C390.753113,442.208252 395.033051,443.102753 399.293121,443.016479 
	C414.098633,442.716583 425.006134,435.448181 431.783081,422.641479 
	C438.577148,409.802338 437.802155,396.759583 430.357971,384.215576 
	C422.026703,370.176819 403.163818,363.841614 392.142059,366.872955 
	C374.780457,368.999603 360.746124,383.765839 359.165497,401.569275 
	C357.600616,419.195221 369.041016,436.152802 386.482300,441.763428 
z"/>
<path fill="#6FD7A3" opacity="1.000000" stroke="none" 
	d="
M263.550018,0.999997 
	C264.807922,2.038322 265.411133,3.391518 266.453461,4.069248 
	C298.250458,24.743460 330.098083,45.339775 361.921539,65.973274 
	C385.313690,81.140106 408.688354,96.333931 432.060150,111.532112 
	C442.644775,118.415077 453.203552,125.337791 463.897583,133.033630 
	C464.014038,140.655762 464.004669,147.486740 464.000366,154.317719 
	C463.966187,208.631927 463.933014,262.946136 463.550842,317.146729 
	C457.942108,314.074127 453.784576,316.000092 449.873260,319.825684 
	C444.404053,325.175018 444.340729,325.110291 437.982056,320.460815 
	C437.987366,265.215912 437.958466,210.434875 438.061188,155.654083 
	C438.068451,151.777069 437.074585,149.197327 433.648102,147.011414 
	C411.489075,132.875046 389.469940,118.519615 367.382782,104.270348 
	C322.232208,75.141975 277.067688,46.035263 231.908920,16.919643 
	C239.819824,11.792326 247.730728,6.665005 255.320801,1.268842 
	C257.700012,1.000000 260.400024,1.000000 263.550018,0.999997 
z"/>
<path fill="#9BE69D" opacity="1.000000" stroke="none" 
	d="
M231.547760,16.956139 
	C277.067688,46.035263 322.232208,75.141975 367.382782,104.270348 
	C389.469940,118.519615 411.489075,132.875046 433.648102,147.011414 
	C437.074585,149.197327 438.068451,151.777069 438.061188,155.654083 
	C437.958466,210.434875 437.987366,265.215912 437.626373,320.417603 
	C434.476562,319.826141 431.684784,318.813965 428.892975,317.801758 
	C428.621552,317.622803 428.361389,317.308502 428.077057,317.284882 
	C421.773224,316.760773 420.174622,313.144592 420.706207,307.277496 
	C421.158386,302.286591 419.088684,298.263153 413.322998,296.344971 
	C412.955994,261.599945 412.946777,227.370804 413.328857,193.094635 
	C419.570312,192.198563 421.827454,189.962006 421.935486,184.471710 
	C422.056427,178.325577 422.083069,172.172028 421.923065,166.027649 
	C421.787750,160.831207 418.964355,157.935242 413.886566,157.896042 
	C403.587585,157.816513 393.286926,157.960266 382.521240,157.960785 
	C324.619354,157.910263 267.183167,157.910980 209.746979,157.911697 
	C171.955338,157.912186 134.163681,157.901459 96.372040,157.923309 
	C89.424736,157.927322 87.030861,160.312546 86.977371,167.149979 
	C86.934402,172.643585 86.927666,178.138184 86.979591,183.631622 
	C87.041656,190.197433 89.076126,192.323166 95.798271,193.552887 
	C95.811394,201.342499 95.897301,208.674118 95.923187,216.470779 
	C95.839188,294.845337 95.815208,372.754822 95.336243,450.675232 
	C79.314499,450.711792 63.747681,450.759064 48.181030,450.726837 
	C46.755577,450.723877 45.331177,450.212555 43.906288,449.937286 
	C43.937340,433.952911 43.993649,417.968567 43.995243,401.984192 
	C44.004028,313.896942 44.043213,225.809586 43.872204,137.722672 
	C43.863510,133.244293 45.498089,131.072647 49.039227,128.922256 
	C70.350349,115.980873 91.525940,102.816505 112.765152,89.756462 
	C135.407806,75.833435 158.074799,61.950024 180.723358,48.036602 
	C197.550903,37.699123 214.365982,27.341360 231.547760,16.956139 
M251.566452,101.816933 
	C249.573349,101.822708 247.577393,101.762154 245.587692,101.847336 
	C240.636765,102.059311 237.369232,105.011734 237.261047,109.286896 
	C237.148148,113.748055 240.558853,117.034180 245.706955,117.092262 
	C254.508972,117.191566 263.313599,117.187691 272.115814,117.097198 
	C277.335419,117.043533 280.732635,113.874573 280.690430,109.409081 
	C280.648224,104.943848 277.295502,101.930870 271.981049,101.847763 
	C265.504822,101.746475 259.025848,101.819313 251.566452,101.816933 
M280.462799,80.002243 
	C280.389008,73.686661 277.994904,70.984352 272.003357,70.907684 
	C263.350037,70.796944 254.693588,70.814568 246.039749,70.902344 
	C240.731735,70.956177 237.344406,73.974854 237.258926,78.429497 
	C237.173279,82.892738 240.575195,86.091927 245.812424,86.148567 
	C254.632553,86.243958 263.454498,86.159286 272.275635,86.179497 
	C276.203918,86.188492 278.991669,84.597343 280.462799,80.002243 
z"/>
<path fill="#4F66D0" opacity="1.000000" stroke="none" 
	d="
M43.444626,449.962830 
	C45.331177,450.212555 46.755577,450.723877 48.181030,450.726837 
	C63.747681,450.759064 79.314499,450.711792 95.816071,450.732178 
	C113.175896,450.708588 129.600906,450.639008 146.494293,450.625366 
	C174.333069,450.695648 201.703476,450.723694 229.073853,450.707916 
	C232.711243,450.705811 236.348495,450.480896 240.441132,450.482239 
	C246.937241,450.522827 252.977997,450.440399 259.470245,450.479004 
	C278.636566,450.713440 297.351379,450.826874 316.066223,450.940308 
	C315.317627,452.527740 314.634857,454.150452 313.807098,455.695496 
	C311.901276,459.252747 309.924988,462.772217 307.953766,466.700409 
	C267.275360,467.062836 226.620438,467.016052 185.965530,467.004700 
	C130.646729,466.989258 75.327850,467.033081 20.009287,466.916534 
	C16.859341,466.909882 13.384315,466.304871 10.651488,464.860382 
	C7.655669,463.276886 6.679675,460.148285 7.780638,456.439728 
	C9.050564,452.161987 11.784427,450.096619 15.990653,450.037994 
	C24.986574,449.912598 33.985355,449.992584 43.444626,449.962830 
z"/>
<path fill="#4F67D0" opacity="1.000000" stroke="none" 
	d="
M428.968018,318.161682 
	C431.684784,318.813965 434.476562,319.826141 437.624023,320.881561 
	C444.340729,325.110291 444.404053,325.175018 449.873260,319.825684 
	C453.784576,316.000092 457.942108,314.074127 463.659119,317.323639 
	C464.314636,317.822357 464.554657,317.956451 464.836121,318.016418 
	C470.496399,323.414917 476.222260,328.746704 481.800842,334.228333 
	C489.283508,341.580933 489.423706,347.456085 481.908997,354.551056 
	C479.086823,357.215637 478.977814,359.160797 480.689545,362.531281 
	C483.252991,367.578796 484.797028,373.135223 487.131775,378.314148 
	C487.681702,379.533997 489.558441,380.588654 490.997192,380.886505 
	C494.179962,381.545349 497.500183,381.512573 500.712067,382.065674 
	C503.988739,382.629944 505.807251,384.760803 506.013397,389.006470 
	C506.034210,400.287170 506.047211,410.713959 506.060211,421.140778 
	C505.590302,426.088959 502.190338,427.741821 497.918762,427.963776 
	C488.087372,428.474670 488.239410,428.446625 484.900513,437.865021 
	C483.223999,442.594208 480.858765,447.079224 478.414703,452.547821 
	C479.984772,453.949219 482.351196,455.812958 484.421509,457.961945 
	C488.472778,462.167358 488.238708,468.210327 484.544983,471.954315 
	C478.115936,478.470886 471.667694,484.971069 465.107422,491.354706 
	C461.124939,495.229980 454.925354,495.176086 450.880859,491.353699 
	C448.830933,489.416412 446.993347,487.254456 445.494720,485.657501 
	C439.904968,487.927307 434.875031,489.969788 429.460571,492.040527 
	C430.646088,489.498962 432.061554,486.818481 433.810486,484.376801 
	C448.579865,463.757690 457.040741,440.980347 459.187988,415.565674 
	C461.368713,389.754791 456.346100,365.565369 444.683197,342.764069 
	C440.325867,334.245361 434.305298,326.577423 428.968018,318.161682 
z"/>
<path fill="#7FDDA1" opacity="1.000000" stroke="none" 
	d="
M464.907166,317.549866 
	C464.554657,317.956451 464.314636,317.822357 464.007782,317.437256 
	C463.933014,262.946136 463.966187,208.631927 464.000366,154.317719 
	C464.004669,147.486740 464.014038,140.655762 464.030426,133.347656 
	C464.359924,134.393585 464.958984,135.916458 464.959991,137.439728 
	C464.999969,197.320892 464.985535,257.202087 464.907166,317.549866 
z"/>
<path fill="#4879D3" opacity="1.000000" stroke="none" 
	d="
M506.430939,420.901855 
	C506.047211,410.713959 506.034210,400.287170 506.030457,389.386414 
	C506.359192,390.431610 506.949585,391.949951 506.953674,393.469910 
	C506.978119,402.534027 506.867157,411.598541 506.430939,420.901855 
z"/>
<path fill="#004281" opacity="1.000000" stroke="none" 
	d="
M146.025925,450.569397 
	C129.600906,450.639008 113.175896,450.708588 96.271057,450.721252 
	C95.815208,372.754822 95.839188,294.845337 96.392975,216.470703 
	C192.704224,216.005493 288.485657,216.005188 384.267090,216.005737 
	C392.004028,216.005783 392.001007,216.008514 392.006653,223.961990 
	C392.023773,248.115341 392.043488,272.268707 392.062195,296.422058 
	C389.253235,296.561188 386.445129,296.722229 383.635101,296.834839 
	C378.016937,297.059967 375.176086,299.841583 374.871277,305.455902 
	C374.362122,314.834229 374.332123,314.753998 365.782471,317.951019 
	C361.908112,319.399750 357.916229,320.824158 354.460602,323.019714 
	C351.137909,325.130920 349.254395,324.269989 346.930634,321.731049 
	C345.060944,319.688171 342.902100,317.583008 340.435211,316.493591 
	C337.095490,315.018860 333.655914,315.643768 330.847717,318.489532 
	C326.187439,323.212219 321.417419,327.826660 316.361816,332.188965 
	C316.020081,307.654388 316.021454,283.417572 315.991638,259.180725 
	C315.984985,253.789017 314.278503,252.050980 308.930084,252.034531 
	C303.955505,252.019226 298.980438,252.150635 293.540222,252.163498 
	C286.301849,252.174957 279.528809,252.240372 272.310791,252.229889 
	C263.219604,252.197754 254.573425,252.241547 245.467712,252.217407 
	C233.686981,252.141479 222.365738,252.121048 211.044525,252.129990 
	C203.798553,252.135712 202.674255,253.252701 202.671494,260.544006 
	C202.659576,292.010559 202.668015,323.477142 202.232910,355.017822 
	C197.575745,355.179962 193.354721,355.268005 188.661499,355.286743 
	C176.543686,355.203033 164.897919,355.146362 153.252548,355.192474 
	C147.664566,355.214600 145.987579,356.838470 145.985138,362.228302 
	C145.971786,391.675323 146.007248,421.122375 146.025925,450.569397 
z"/>
<path fill="#00366D" opacity="1.000000" stroke="none" 
	d="
M392.514618,296.537231 
	C392.043488,272.268707 392.023773,248.115341 392.006653,223.961990 
	C392.001007,216.008514 392.004028,216.005783 384.267090,216.005737 
	C288.485657,216.005188 192.704224,216.005493 96.453003,216.005676 
	C95.897301,208.674118 95.811394,201.342499 96.281174,193.510483 
	C189.891632,193.006638 282.946381,193.004517 376.001160,192.992142 
	C378.327911,192.991821 380.654663,192.878082 383.445374,192.898102 
	C393.585419,193.033188 403.261505,193.087433 412.937561,193.141663 
	C412.946777,227.370804 412.955994,261.599945 412.955658,296.267456 
	C406.286407,296.688049 399.626740,296.670197 392.514618,296.537231 
z"/>
<path fill="#D77F4A" opacity="1.000000" stroke="none" 
	d="
M316.138550,450.566833 
	C297.351379,450.826874 278.636566,450.713440 259.465332,450.057800 
	C258.990601,418.068512 258.972198,386.621460 259.424988,355.135742 
	C271.927917,355.058350 283.959625,355.019592 296.459290,355.001831 
	C302.647522,354.716858 308.367798,354.410858 314.088104,354.104858 
	C317.296875,355.960632 317.537048,358.103668 315.805725,361.487030 
	C313.100006,366.774567 310.879944,372.356476 308.975830,377.990051 
	C307.946167,381.036316 306.593140,382.380035 303.379639,381.967712 
	C301.583374,381.737213 299.727783,381.857941 297.906311,381.956818 
	C292.821167,382.232758 289.315765,385.309875 289.193878,390.356964 
	C288.961395,399.981812 288.947418,409.621185 289.204285,419.244904 
	C289.343109,424.445709 292.990021,428.258698 298.382172,427.602722 
	C306.136902,426.659302 309.204559,429.890778 310.806091,436.905334 
	C311.856506,441.506195 314.358795,445.775574 316.138550,450.566833 
z"/>
<path fill="#F1FAFE" opacity="1.000000" stroke="none" 
	d="
M385.923859,441.232025 
	C369.041016,436.152802 357.600616,419.195221 359.165497,401.569275 
	C360.746124,383.765839 374.780457,368.999603 392.631531,367.191772 
	C394.093384,368.356506 394.981720,369.331451 396.051392,370.027863 
	C404.294037,375.394104 410.184998,382.619049 412.785797,392.138733 
	C418.012054,411.268402 409.051392,429.732300 390.795349,438.132904 
	C389.062988,438.930084 387.542664,440.188019 385.923859,441.232025 
z"/>
<path fill="#FDB238" opacity="1.000000" stroke="none" 
	d="
M313.900879,353.808899 
	C308.367798,354.410858 302.647522,354.716858 296.462189,354.559692 
	C296.327911,350.475220 296.934296,346.854706 296.945404,343.232391 
	C297.026764,316.661957 297.106384,290.090057 296.856049,263.521729 
	C296.820465,259.745026 294.999969,255.985138 294.005585,252.217468 
	C298.980438,252.150635 303.955505,252.019226 308.930084,252.034531 
	C314.278503,252.050980 315.984985,253.789017 315.991638,259.180725 
	C316.021454,283.417572 316.020081,307.654388 316.083740,332.337189 
	C315.370117,333.650757 314.640289,334.555328 313.829468,335.380249 
	C306.358002,342.981689 306.333649,346.000000 313.900879,353.808899 
z"/>
<path fill="#DEF5FD" opacity="1.000000" stroke="none" 
	d="
M386.203064,441.497742 
	C387.542664,440.188019 389.062988,438.930084 390.795349,438.132904 
	C409.051392,429.732300 418.012054,411.268402 412.785797,392.138733 
	C410.184998,382.619049 404.294037,375.394104 396.051392,370.027863 
	C394.981720,369.331451 394.093384,368.356506 393.041748,367.167419 
	C403.163818,363.841614 422.026703,370.176819 430.357971,384.215576 
	C437.802155,396.759583 438.577148,409.802338 431.783081,422.641479 
	C425.006134,435.448181 414.098633,442.716583 399.293121,443.016479 
	C395.033051,443.102753 390.753113,442.208252 386.203064,441.497742 
z"/>
<path fill="#F2FBFF" opacity="1.000000" stroke="none" 
	d="
M382.981415,192.817245 
	C380.654663,192.878082 378.327911,192.991821 376.001160,192.992142 
	C282.946381,193.004517 189.891632,193.006638 96.353966,193.052490 
	C89.076126,192.323166 87.041656,190.197433 86.979591,183.631622 
	C86.927666,178.138184 86.934402,172.643585 86.977371,167.149979 
	C87.030861,160.312546 89.424736,157.927322 96.372040,157.923309 
	C134.163681,157.901459 171.955338,157.912186 209.746979,157.911697 
	C267.183167,157.910980 324.619354,157.910263 382.591980,158.322693 
	C387.693481,170.116211 387.546112,181.476257 382.981415,192.817245 
z"/>
<path fill="#DFF6FD" opacity="1.000000" stroke="none" 
	d="
M383.445374,192.898102 
	C387.546112,181.476257 387.693481,170.116211 383.057678,158.373917 
	C393.286926,157.960266 403.587585,157.816513 413.886566,157.896042 
	C418.964355,157.935242 421.787750,160.831207 421.923065,166.027649 
	C422.083069,172.172028 422.056427,178.325577 421.935486,184.471710 
	C421.827454,189.962006 419.570312,192.198563 413.328857,193.094635 
	C403.261505,193.087433 393.585419,193.033188 383.445374,192.898102 
z"/>
<path fill="#02386E" opacity="1.000000" stroke="none" 
	d="
M252.057251,101.816879 
	C259.025848,101.819313 265.504822,101.746475 271.981049,101.847763 
	C277.295502,101.930870 280.648224,104.943848 280.690430,109.409081 
	C280.732635,113.874573 277.335419,117.043533 272.115814,117.097198 
	C263.313599,117.187691 254.508972,117.191566 245.706955,117.092262 
	C240.558853,117.034180 237.148148,113.748055 237.261047,109.286896 
	C237.369232,105.011734 240.636765,102.059311 245.587692,101.847336 
	C247.577393,101.762154 249.573349,101.822708 252.057251,101.816879 
z"/>
<path fill="#02386E" opacity="1.000000" stroke="none" 
	d="
M280.355804,80.366776 
	C278.991669,84.597343 276.203918,86.188492 272.275635,86.179497 
	C263.454498,86.159286 254.632553,86.243958 245.812424,86.148567 
	C240.575195,86.091927 237.173279,82.892738 237.258926,78.429497 
	C237.344406,73.974854 240.731735,70.956177 246.039749,70.902344 
	C254.693588,70.814568 263.350037,70.796944 272.003357,70.907684 
	C277.994904,70.984352 280.389008,73.686661 280.355804,80.366776 
z"/>
<path fill="#D67F4B" opacity="1.000000" stroke="none" 
	d="
M146.494293,450.625366 
	C146.007248,421.122375 145.971786,391.675323 145.985138,362.228302 
	C145.987579,356.838470 147.664566,355.214600 153.252548,355.192474 
	C164.897919,355.146362 176.543686,355.203033 188.660217,355.732056 
	C189.118912,366.236023 189.204163,376.226929 189.045380,386.213959 
	C188.983810,390.085968 190.598114,391.690247 194.364166,391.637970 
	C199.857315,391.561707 205.353333,391.559174 210.846237,391.645844 
	C214.658829,391.705994 216.144257,390.045288 216.069824,386.186127 
	C215.870758,375.867554 215.947998,365.543701 216.387695,355.182251 
	C224.591293,355.169159 232.322662,355.195801 240.041565,355.676971 
	C240.014664,387.540741 240.000244,418.949982 239.985809,450.359192 
	C236.348495,450.480896 232.711243,450.705811 229.073853,450.707916 
	C201.703476,450.723694 174.333069,450.695648 146.494293,450.625366 
z"/>
<path fill="#C86D37" opacity="1.000000" stroke="none" 
	d="
M240.441132,450.482239 
	C240.000244,418.949982 240.014664,387.540741 240.502197,355.615967 
	C246.968155,355.125092 252.960983,355.149719 258.953796,355.174377 
	C258.972198,386.621460 258.990601,418.068512 259.013855,449.936768 
	C252.977997,450.440399 246.937241,450.522827 240.441132,450.482239 
z"/>
<path fill="#FFC344" opacity="1.000000" stroke="none" 
	d="
M259.425018,355.135742 
	C252.960983,355.149719 246.968155,355.125092 240.514679,355.161438 
	C232.322662,355.195801 224.591293,355.169159 215.923767,355.155579 
	C210.881409,355.093628 206.775238,355.018646 202.669052,354.943695 
	C202.668015,323.477142 202.659576,292.010559 202.671494,260.544006 
	C202.674255,253.252701 203.798553,252.135712 211.044525,252.129990 
	C222.365738,252.121048 233.686981,252.141479 245.463562,252.667419 
	C245.911606,262.818146 246.105011,272.457092 245.810852,282.081146 
	C245.667450,286.772675 247.162201,288.841431 251.997192,288.612427 
	C256.968597,288.376984 261.963593,288.437164 266.941040,288.595459 
	C271.168518,288.729919 272.928009,287.010864 272.849701,282.697754 
	C272.665771,272.569885 272.768890,262.436798 272.755798,252.305786 
	C279.528809,252.240372 286.301849,252.174957 293.540222,252.163513 
	C294.999969,255.985138 296.820465,259.745026 296.856049,263.521729 
	C297.106384,290.090057 297.026764,316.661957 296.945404,343.232391 
	C296.934296,346.854706 296.327911,350.475220 295.994263,354.538696 
	C283.959625,355.019592 271.927917,355.058350 259.425018,355.135742 
z"/>
<path fill="#F1F8FB" opacity="1.000000" stroke="none" 
	d="
M202.232910,355.017822 
	C206.775238,355.018646 210.881409,355.093628 215.451523,355.195251 
	C215.947998,365.543701 215.870758,375.867554 216.069824,386.186127 
	C216.144257,390.045288 214.658829,391.705994 210.846237,391.645844 
	C205.353333,391.559174 199.857315,391.561707 194.364166,391.637970 
	C190.598114,391.690247 188.983810,390.085968 189.045380,386.213959 
	C189.204163,376.226929 189.118912,366.236023 189.132416,355.801331 
	C193.354721,355.268005 197.575745,355.179962 202.232910,355.017822 
z"/>
<path fill="#F1F9FC" opacity="1.000000" stroke="none" 
	d="
M272.310822,252.229889 
	C272.768890,262.436798 272.665771,272.569885 272.849701,282.697754 
	C272.928009,287.010864 271.168518,288.729919 266.941040,288.595459 
	C261.963593,288.437164 256.968597,288.376984 251.997192,288.612427 
	C247.162201,288.841431 245.667450,286.772675 245.810852,282.081146 
	C246.105011,272.457092 245.911606,262.818146 245.923065,252.735352 
	C254.573425,252.241547 263.219604,252.197754 272.310822,252.229889 
z"/>
</svg>